<svg width="72" height="72" viewBox="0 0 72 72" fill="none" xmlns="http://www.w3.org/2000/svg">
<path d="M46.7501 0.166687C37.0392 0.166687 28.6542 5.68502 24.4617 13.7117C19.8613 16.1085 16.1086 19.8612 13.7117 24.4617C9.63099 26.5821 6.21022 29.7814 3.82191 33.7114C1.43361 37.6414 0.169332 42.1513 0.166748 46.75C0.166748 60.6175 11.3826 71.8334 25.2501 71.8334C34.9609 71.8334 43.3459 66.315 47.5384 58.2883C52.1389 55.8915 55.8916 52.1388 58.2884 47.5384C62.3692 45.418 65.7899 42.2186 68.1782 38.2886C70.5666 34.3587 71.8308 29.8488 71.8334 25.25C71.8334 11.3825 60.6176 0.166687 46.7501 0.166687ZM25.2501 64.6667C21.9238 64.664 18.664 63.7359 15.8352 61.986C13.0064 60.2362 10.7204 57.7337 9.23284 54.7586C7.7453 51.7836 7.11496 48.4532 7.41235 45.1403C7.70974 41.8274 8.92313 38.6626 10.9167 36C10.9167 49.8675 22.1326 61.0834 36.0001 61.0834C32.9901 63.3409 29.2634 64.6667 25.2501 64.6667ZM36.0001 53.9167C32.6738 53.914 29.414 52.9859 26.5852 51.236C23.7564 49.4862 21.4704 46.9837 19.9828 44.0086C18.4953 41.0336 17.865 37.7032 18.1624 34.3903C18.4597 31.0774 19.6731 27.9126 21.6667 25.25C21.6667 39.0817 32.8826 50.2975 46.7501 50.3334C43.7401 52.5909 40.0134 53.9167 36.0001 53.9167ZM52.8418 42.0917C50.9426 42.7725 48.9001 43.1667 46.7501 43.1667C36.8601 43.1667 28.8334 35.14 28.8334 25.25C28.8334 23.1 29.2276 21.0575 29.9084 19.1584C31.8076 18.4775 33.8501 18.0834 36.0001 18.0834C45.8901 18.0834 53.9167 26.11 53.9167 36C53.9167 38.15 53.5226 40.1925 52.8418 42.0917ZM61.0834 36C61.0834 22.1684 49.8676 10.9525 36.0001 10.9167C39.452 8.34265 43.7152 7.09735 48.01 7.40855C52.3047 7.71975 56.3439 9.56665 59.3887 12.6114C62.4334 15.6562 64.2803 19.6954 64.5916 23.9901C64.9027 28.2849 63.6574 32.5481 61.0834 36Z" fill="#C6C6C6"/>
</svg>
