<svg width="500" height="500" viewBox="0 0 500 500" fill="none" xmlns="http://www.w3.org/2000/svg">
    <rect width="500" height="500" rx="250" fill="black"/>
    <path d="M62.0731 262.551H37.8824L34.0045 274H17.4773L40.9293 209.184H59.2108L82.6628 274H65.951L62.0731 262.551ZM58.0105 250.363L49.9777 226.634L42.0373 250.363H58.0105ZM121.193 221.925C127.225 221.925 132.026 223.895 135.597 227.835C139.228 231.712 141.044 237.068 141.044 243.9V274H125.348V246.024C125.348 242.577 124.455 239.899 122.67 237.991C120.885 236.083 118.485 235.129 115.468 235.129C112.452 235.129 110.052 236.083 108.267 237.991C106.482 239.899 105.589 242.577 105.589 246.024V274H89.8004V222.479H105.589V229.312C107.189 227.034 109.344 225.249 112.052 223.957C114.761 222.603 117.807 221.925 121.193 221.925ZM159.956 217.124C157.186 217.124 154.909 216.324 153.124 214.724C151.4 213.062 150.538 211.03 150.538 208.63C150.538 206.168 151.4 204.136 153.124 202.536C154.909 200.874 157.186 200.043 159.956 200.043C162.664 200.043 164.88 200.874 166.604 202.536C168.389 204.136 169.281 206.168 169.281 208.63C169.281 211.03 168.389 213.062 166.604 214.724C164.88 216.324 162.664 217.124 159.956 217.124ZM167.804 222.479V274H152.016V222.479H167.804ZM244.985 221.925C251.387 221.925 256.465 223.864 260.22 227.742C264.036 231.62 265.945 237.006 265.945 243.9V274H250.248V246.024C250.248 242.7 249.356 240.145 247.571 238.36C245.847 236.514 243.447 235.59 240.369 235.59C237.291 235.59 234.86 236.514 233.075 238.36C231.351 240.145 230.49 242.7 230.49 246.024V274H214.793V246.024C214.793 242.7 213.901 240.145 212.116 238.36C210.392 236.514 207.992 235.59 204.914 235.59C201.836 235.59 199.405 236.514 197.62 238.36C195.896 240.145 195.034 242.7 195.034 246.024V274H179.246V222.479H195.034V228.943C196.635 226.788 198.728 225.095 201.313 223.864C203.898 222.572 206.822 221.925 210.084 221.925C213.962 221.925 217.409 222.756 220.425 224.418C223.503 226.08 225.904 228.45 227.627 231.528C229.412 228.696 231.844 226.388 234.921 224.603C237.999 222.818 241.354 221.925 244.985 221.925Z" fill="white"/>
    <rect x="281.451" y="187.619" width="201.589" height="109.258" rx="9.23308" fill="#FFA31A"/>
    <path d="M347.929 209.184V274H332.141V247.316H307.581V274H291.792V209.184H307.581V234.575H332.141V209.184H347.929ZM410.201 222.479V274H394.413V266.983C392.812 269.26 390.627 271.107 387.857 272.523C385.149 273.877 382.133 274.554 378.809 274.554C374.87 274.554 371.392 273.692 368.376 271.969C365.359 270.184 363.02 267.629 361.358 264.305C359.697 260.981 358.866 257.073 358.866 252.579V222.479H374.562V250.456C374.562 253.903 375.454 256.58 377.239 258.488C379.024 260.397 381.425 261.351 384.441 261.351C387.519 261.351 389.95 260.397 391.735 258.488C393.52 256.58 394.413 253.903 394.413 250.456V222.479H410.201ZM437.331 229.774C438.808 227.373 440.932 225.434 443.702 223.957C446.472 222.479 449.642 221.741 453.212 221.741C457.459 221.741 461.306 222.818 464.753 224.972C468.2 227.127 470.908 230.204 472.878 234.205C474.909 238.206 475.925 242.854 475.925 248.147C475.925 253.441 474.909 258.119 472.878 262.182C470.908 266.183 468.2 269.291 464.753 271.507C461.306 273.661 457.459 274.739 453.212 274.739C449.58 274.739 446.41 274.031 443.702 272.615C440.993 271.138 438.87 269.199 437.331 266.798V274H421.542V205.675H437.331V229.774ZM459.86 248.147C459.86 244.208 458.752 241.13 456.536 238.914C454.381 236.637 451.704 235.498 448.503 235.498C445.364 235.498 442.686 236.637 440.47 238.914C438.316 241.192 437.239 244.3 437.239 248.24C437.239 252.179 438.316 255.288 440.47 257.565C442.686 259.843 445.364 260.981 448.503 260.981C451.642 260.981 454.32 259.843 456.536 257.565C458.752 255.226 459.86 252.087 459.86 248.147Z" fill="black"/>
</svg>