<svg width="430" height="427" viewBox="0 0 430 427" fill="none" xmlns="http://www.w3.org/2000/svg">
<rect x="413.641" width="16.3587" height="317.826" rx="6.23188" fill="#FFA31A"/>
<rect x="413.641" y="324.837" width="16.3587" height="101.268" rx="6.23188" fill="white"/>
<rect y="155.018" width="45.9601" height="171.377" rx="6.23188" fill="#292929"/>
<rect y="332.627" width="45.9601" height="93.4783" rx="6.23188" fill="#FFA31A"/>
<rect x="52.1919" y="45.1812" width="222.011" height="214.221" rx="7.78986" fill="#FFA31A"/>
<rect x="50.634" y="264.855" width="111.395" height="112.953" rx="7.78986" fill="white"/>
<rect x="279.656" y="324.837" width="127.754" height="84.1304" rx="7.78986" fill="#FFA31A"/>
<rect width="107.5" height="38.9493" rx="6.23188" fill="white"/>
<rect x="280.435" width="126.975" height="38.9493" rx="6.23188" fill="#808080"/>
<rect x="279.656" y="264.855" width="126.975" height="52.971" rx="6.23188" fill="white"/>
<rect x="166.703" y="264.855" width="107.5" height="52.971" rx="6.23188" fill="#808080"/>
<rect x="166.703" y="324.837" width="107.5" height="52.971" rx="6.23188" fill="#292929"/>
<rect x="166.703" y="383.261" width="107.5" height="25.7065" rx="6.23188" fill="#808080"/>
<rect x="280.435" y="45.1812" width="126.975" height="115.29" rx="6.23188" fill="#292929"/>
</svg>
