<svg width="78" height="78" viewBox="0 0 78 78" fill="none" xmlns="http://www.w3.org/2000/svg">
<path d="M29.88 28.25C32.0472 25.627 35.3281 23.95 39.0003 23.95C42.6725 23.95 45.9534 25.627 48.1206 28.25C49.5474 29.9799 50.4529 32.0799 50.7315 34.305C51.0101 36.5301 50.6503 38.7885 49.694 40.8168C48.7377 42.8451 47.2244 44.5597 45.3306 45.7606C43.4368 46.9614 41.2406 47.599 38.9981 47.599C36.7557 47.599 34.5595 46.9614 32.6657 45.7606C30.7719 44.5597 29.2586 42.8451 28.3023 40.8168C27.346 38.7885 26.9862 36.5301 27.2647 34.305C27.5433 32.0799 28.4489 29.9799 29.8757 28.25H29.88ZM55.1253 35.775C55.1253 33.0574 54.4545 30.4946 53.2677 28.25H71.2503C72.9609 28.25 74.6015 28.9295 75.8111 30.1391C77.0207 31.3488 77.7003 32.9893 77.7003 34.7V36.85C77.7003 43.6741 72.5145 50.6616 63.4458 53.1212C62.5138 51.4471 61.1514 50.0525 59.4995 49.0818C57.8476 48.1111 55.9663 47.5995 54.0503 47.6H49.9653C51.5951 46.092 52.895 44.2628 53.7831 42.2276C54.6712 40.1925 55.1282 37.9955 55.1253 35.775ZM54.0503 51.9C54.898 51.8977 55.7377 52.063 56.5213 52.3863C57.3049 52.7097 58.0168 53.1847 58.6162 53.7841C59.2156 54.3835 59.6906 55.0954 60.0139 55.879C60.3373 56.6626 60.5026 57.5023 60.5003 58.35V60.5C60.5003 68.9753 52.5023 77.7 39.0003 77.7C25.4983 77.7 17.5003 68.9753 17.5003 60.5V58.35C17.498 57.5023 17.6633 56.6626 17.9866 55.879C18.31 55.0954 18.785 54.3835 19.3844 53.7841C19.9838 53.1847 20.6957 52.7097 21.4793 52.3863C22.2629 52.063 23.1026 51.8977 23.9503 51.9H54.0503ZM0.300293 36.85C0.300293 43.6741 5.48609 50.6616 14.5548 53.1212C15.4867 51.4471 16.8492 50.0525 18.5011 49.0818C20.153 48.1111 22.0343 47.5995 23.9503 47.6H28.0353C26.4055 46.092 25.1056 44.2628 24.2175 42.2276C23.3294 40.1925 22.8724 37.9955 22.8753 35.775C22.8753 33.0574 23.5461 30.4946 24.7372 28.25H6.75029C5.03965 28.25 3.39906 28.9295 2.18945 30.1391C0.979845 31.3488 0.300293 32.9893 0.300293 34.7V36.85ZM33.6253 12.125C33.6253 8.9888 32.3794 5.98107 30.1618 3.76345C27.9442 1.54583 24.9365 0.299988 21.8003 0.299988C18.6641 0.299988 15.6564 1.54583 13.4388 3.76345C11.2211 5.98107 9.97529 8.9888 9.97529 12.125C9.97529 15.2612 11.2211 18.2689 13.4388 20.4865C15.6564 22.7041 18.6641 23.95 21.8003 23.95C24.9365 23.95 27.9442 22.7041 30.1618 20.4865C32.3794 18.2689 33.6253 15.2612 33.6253 12.125ZM68.0253 12.125C68.0253 8.9888 66.7794 5.98107 64.5618 3.76345C62.3442 1.54583 59.3365 0.299988 56.2003 0.299988C53.0641 0.299988 50.0564 1.54583 47.8388 3.76345C45.6211 5.98107 44.3753 8.9888 44.3753 12.125C44.3753 15.2612 45.6211 18.2689 47.8388 20.4865C50.0564 22.7041 53.0641 23.95 56.2003 23.95C59.3365 23.95 62.3442 22.7041 64.5618 20.4865C66.7794 18.2689 68.0253 15.2612 68.0253 12.125Z" fill="#C6C6C6"/>
</svg>
