<svg width="47" height="46" viewBox="0 0 47 46" fill="none" xmlns="http://www.w3.org/2000/svg">
<path fill-rule="evenodd" clip-rule="evenodd" d="M36.7315 20.7924C37.6853 20.7921 38.6039 21.1523 39.3032 21.8008C40.0026 22.4493 40.431 23.3382 40.5025 24.2893L40.512 24.5728V35.9141C40.5123 36.8679 40.152 37.7865 39.5035 38.4859C38.855 39.1852 37.9661 39.6136 37.015 39.6851L36.7315 39.6946H29.1706C28.2169 39.6949 27.2983 39.3347 26.5989 38.6861C25.8996 38.0376 25.4712 37.1487 25.3997 36.1977L25.3902 35.9141V24.5728C25.3899 23.6191 25.7501 22.7004 26.3986 22.0011C27.0472 21.3017 27.936 20.8734 28.8871 20.8018L29.1706 20.7924H36.7315ZM17.8293 28.3533C18.832 28.3533 19.7935 28.7516 20.5025 29.4605C21.2115 30.1695 21.6098 31.1311 21.6098 32.1337V35.9141C21.6098 36.9168 21.2115 37.8783 20.5025 38.5873C19.7935 39.2963 18.832 39.6946 17.8293 39.6946H10.2685C9.26584 39.6946 8.30427 39.2963 7.5953 38.5873C6.88633 37.8783 6.48804 36.9168 6.48804 35.9141V32.1337C6.48804 31.1311 6.88633 30.1695 7.5953 29.4605C8.30427 28.7516 9.26584 28.3533 10.2685 28.3533H17.8293ZM17.8293 5.67065C18.832 5.67065 19.7935 6.06895 20.5025 6.77792C21.2115 7.48689 21.6098 8.44845 21.6098 9.45109V20.7924C21.6098 21.795 21.2115 22.7566 20.5025 23.4656C19.7935 24.1745 18.832 24.5728 17.8293 24.5728H10.2685C9.26584 24.5728 8.30427 24.1745 7.5953 23.4656C6.88633 22.7566 6.48804 21.795 6.48804 20.7924V9.45109C6.48804 8.44845 6.88633 7.48689 7.5953 6.77792C8.30427 6.06895 9.26584 5.67065 10.2685 5.67065H17.8293ZM36.7315 5.67065C37.7341 5.67065 38.6957 6.06895 39.4047 6.77792C40.1137 7.48689 40.512 8.44845 40.512 9.45109V13.2315C40.512 14.2342 40.1137 15.1957 39.4047 15.9047C38.6957 16.6137 37.7341 17.012 36.7315 17.012H29.1706C28.168 17.012 27.2064 16.6137 26.4975 15.9047C25.7885 15.1957 25.3902 14.2342 25.3902 13.2315V9.45109C25.3902 8.44845 25.7885 7.48689 26.4975 6.77792C27.2064 6.06895 28.168 5.67065 29.1706 5.67065H36.7315Z" fill="#C6C6C6"/>
</svg>
