<svg width="80" height="66" viewBox="0 0 80 66" fill="none" xmlns="http://www.w3.org/2000/svg">
<path d="M72.2499 0.75H7.74992C5.8492 0.75 4.02633 1.50506 2.68232 2.84907C1.33831 4.19308 0.583252 6.01595 0.583252 7.91667V18.6667H7.74992V7.91667H72.2499V58.0833H47.1666V65.25H72.2499C74.1506 65.25 75.9735 64.4949 77.3175 63.1509C78.6615 61.8069 79.4166 59.9841 79.4166 58.0833V7.91667C79.4166 6.01595 78.6615 4.19308 77.3175 2.84907C75.9735 1.50506 74.1506 0.75 72.2499 0.75ZM0.583252 54.5V65.25H11.3333C11.3333 62.3989 10.2007 59.6646 8.18465 57.6486C6.16863 55.6326 3.43433 54.5 0.583252 54.5ZM0.583252 40.1667V47.3333C2.9361 47.3333 5.26591 47.7968 7.43966 48.6972C9.61341 49.5976 11.5885 50.9173 13.2522 52.581C14.916 54.2447 16.2357 56.2198 17.1361 58.3936C18.0365 60.5673 18.4999 62.8971 18.4999 65.25H25.6666C25.6666 58.5975 23.0239 52.2174 18.3198 47.5134C13.6158 42.8094 7.23577 40.1667 0.583252 40.1667ZM0.583252 25.8333V33C4.81838 33 9.01204 33.8342 12.9248 35.4549C16.8375 37.0756 20.3928 39.4511 23.3874 42.4458C26.3821 45.4405 28.7577 48.9957 30.3784 52.9085C31.9991 56.8212 32.8333 61.0149 32.8333 65.25H39.9999C39.9999 43.4633 22.3341 25.8333 0.583252 25.8333ZM36.4166 29.7392V36.9058L48.9583 43.75L61.4999 36.9058V29.7392L48.9583 36.5833L36.4166 29.7392ZM48.9583 11.5L29.2499 22.25L48.9583 33L68.6666 22.25L48.9583 11.5Z" fill="#C6C6C6"/>
</svg>
